<svg width="133" height="101" viewBox="0 0 133 101" fill="none" xmlns="http://www.w3.org/2000/svg">
<path fill-rule="evenodd" clip-rule="evenodd" d="M55.6666 0H38.3333C37.597 0 37 0.596952 37 1.33333V18.6666C37 19.403 37.597 19.9999 38.3333 19.9999H55.6666C56.403 19.9999 56.9999 19.403 56.9999 18.6666V1.33333C56.9999 0.596952 56.403 0 55.6666 0ZM75.6752 19.9997H58.342C57.6056 19.9997 57.0086 20.5966 57.0086 21.333V38.6663C57.0086 39.4027 57.6056 39.9996 58.342 39.9996H75.6752C76.4116 39.9996 77.0086 39.4027 77.0086 38.6663V21.333C77.0086 20.5966 76.4116 19.9997 75.6752 19.9997ZM78.3332 0H95.6665C96.4028 0 96.9998 0.596952 96.9998 1.33333V18.6666C96.9998 19.403 96.4028 19.9999 95.6665 19.9999H78.3332C77.5968 19.9999 76.9998 19.403 76.9998 18.6666V1.33333C76.9998 0.596952 77.5968 0 78.3332 0ZM55.6666 40.0003H38.3333C37.597 40.0003 37 40.5973 37 41.3336V58.6669C37 59.4033 37.597 60.0002 38.3333 60.0002H55.6666C56.403 60.0002 56.9999 59.4033 56.9999 58.6669V41.3336C56.9999 40.5973 56.403 40.0003 55.6666 40.0003ZM78.3332 40.0003H95.6665C96.4028 40.0003 96.9998 40.5973 96.9998 41.3336V58.6669C96.9998 59.4033 96.4028 60.0002 95.6665 60.0002H78.3332C77.5968 60.0002 76.9998 59.4033 76.9998 58.6669V41.3336C76.9998 40.5973 77.5968 40.0003 78.3332 40.0003Z" fill="black"/>
<path d="M1.49628 91.192C1.49628 89.352 1.86428 87.744 2.60028 86.368C3.33628 84.992 4.33628 83.944 5.60028 83.224C6.88028 82.488 8.30428 82.12 9.87228 82.12C11.4403 82.12 12.8563 82.488 14.1203 83.224C15.4003 83.944 16.4083 84.992 17.1443 86.368C17.8963 87.744 18.2723 89.352 18.2723 91.192C18.2723 93.048 17.8963 94.664 17.1443 96.04C16.4083 97.416 15.4003 98.472 14.1203 99.208C12.8563 99.928 11.4403 100.288 9.87228 100.288C8.30428 100.288 6.88028 99.928 5.60028 99.208C4.33628 98.472 3.33628 97.416 2.60028 96.04C1.86428 94.664 1.49628 93.048 1.49628 91.192ZM5.16828 91.192C5.16828 92.36 5.36028 93.392 5.74428 94.288C6.14428 95.184 6.69628 95.88 7.40028 96.376C8.12028 96.856 8.94428 97.096 9.87228 97.096C10.8003 97.096 11.6163 96.856 12.3203 96.376C13.0403 95.88 13.5923 95.184 13.9763 94.288C14.3763 93.392 14.5763 92.36 14.5763 91.192C14.5763 90.024 14.3763 89 13.9763 88.12C13.5923 87.224 13.0403 86.536 12.3203 86.056C11.6163 85.56 10.8003 85.312 9.87228 85.312C8.94428 85.312 8.12028 85.56 7.40028 86.056C6.69628 86.536 6.14428 87.224 5.74428 88.12C5.36028 89 5.16828 90.024 5.16828 91.192ZM29.5092 89.608L36.9732 100H32.4852L27.0132 92.272L24.6132 94.84V100H21.1332V82.432H24.6132V90.616L31.9092 82.432H36.2532L29.5092 89.608ZM53.8497 82.432L47.6817 91L54.1377 100H49.8177L45.5457 93.832L41.2497 100H37.2177L43.6497 91.072L37.5057 82.432H41.7537L45.7857 88.24L49.8177 82.432H53.8497ZM74.0963 82.432L77.7443 94.24L81.1043 82.432H84.4643L78.9923 100H76.3043L72.6083 88.528L69.0323 100H66.3683L60.6563 82.432H64.2563L67.8563 94.24L71.3123 82.432H74.0963ZM89.4293 87.256C91.1093 87.256 92.4213 87.736 93.3653 88.696C94.3093 89.64 94.7813 90.992 94.7813 92.752V100H91.9733C91.9573 99.872 91.9333 99.664 91.9013 99.376C91.8853 99.072 91.8533 98.808 91.8053 98.584C91.4373 99.16 90.9573 99.592 90.3653 99.88C89.7893 100.152 89.0853 100.288 88.2533 100.288C87.3893 100.288 86.5973 100.136 85.8773 99.832C85.1733 99.528 84.6133 99.088 84.1973 98.512C83.7813 97.92 83.5733 97.224 83.5733 96.424C83.5733 95.592 83.8053 94.872 84.2693 94.264C84.7493 93.64 85.3893 93.16 86.1893 92.824C86.9893 92.488 87.8693 92.32 88.8293 92.32C89.6933 92.32 90.5813 92.464 91.4933 92.752C91.4453 90.912 90.6613 89.992 89.1413 89.992C87.9253 89.992 87.0373 90.536 86.4773 91.624L84.1013 90.256C84.5493 89.328 85.2373 88.6 86.1653 88.072C87.0933 87.528 88.1813 87.256 89.4293 87.256ZM91.4933 94.96C90.6933 94.768 89.9973 94.672 89.4053 94.672C88.6213 94.672 88.0133 94.816 87.5813 95.104C87.1493 95.376 86.9333 95.768 86.9333 96.28C86.9333 96.744 87.1013 97.104 87.4373 97.36C87.7893 97.616 88.2373 97.744 88.7813 97.744C89.5013 97.744 90.1333 97.544 90.6773 97.144C91.2213 96.728 91.4933 96.16 91.4933 95.44V94.96ZM101.056 100H97.7202V81.736H101.056V100ZM107.478 100H104.142V81.736H107.478V100ZM116.084 87.256C117.188 87.256 118.164 87.504 119.012 88C119.876 88.48 120.54 89.168 121.004 90.064C121.484 90.944 121.724 91.96 121.724 93.112C121.724 93.624 121.676 94.144 121.58 94.672H113.324C113.468 95.6 113.804 96.304 114.332 96.784C114.86 97.248 115.516 97.48 116.3 97.48C116.86 97.48 117.356 97.36 117.788 97.12C118.236 96.864 118.58 96.488 118.82 95.992L121.268 97.432C120.932 98.344 120.284 99.048 119.324 99.544C118.38 100.04 117.324 100.288 116.156 100.288C115.036 100.288 113.996 100.04 113.036 99.544C112.076 99.048 111.3 98.304 110.708 97.312C110.132 96.32 109.844 95.128 109.844 93.736C109.844 92.36 110.132 91.184 110.708 90.208C111.3 89.232 112.068 88.496 113.012 88C113.956 87.504 114.98 87.256 116.084 87.256ZM115.988 89.968C115.332 89.968 114.772 90.176 114.308 90.592C113.844 91.008 113.532 91.592 113.372 92.344H118.316C118.252 91.576 118.004 90.992 117.572 90.592C117.156 90.176 116.628 89.968 115.988 89.968ZM132.563 99.28C131.747 99.952 130.611 100.288 129.155 100.288C127.811 100.288 126.723 99.936 125.891 99.232C125.075 98.512 124.667 97.232 124.667 95.392V90.376H122.459V87.568H124.667V83.752H128.003V87.568H131.747V90.376H128.003V94.84C128.003 95.672 128.147 96.304 128.435 96.736C128.723 97.168 129.187 97.384 129.827 97.384C130.387 97.384 130.915 97.216 131.411 96.88L132.563 99.28Z" fill="black"/>
</svg>
